<mxfile host="app.diagrams.net" agent="Mozilla/5.0 (Windows NT 10.0; Win64; x64) AppleWebKit/537.36 (KHTML, like Gecko) Chrome/131.0.0.0 Safari/537.36 OPR/116.0.0.0" version="24.8.4">
  <diagram name="Page-1" id="hpo93BL0fKYQl3CBWbp5">
    <mxGraphModel dx="2242" dy="785" grid="1" gridSize="10" guides="1" tooltips="1" connect="1" arrows="1" fold="1" page="1" pageScale="1" pageWidth="850" pageHeight="1100" math="0" shadow="0">
      <root>
        <mxCell id="0" />
        <mxCell id="1" parent="0" />
        <mxCell id="3" value="Thu thập dữ liệu" style="rounded=1;arcSize=40;strokeWidth=2" parent="1" vertex="1">
          <mxGeometry x="-19" y="20" width="153" height="49" as="geometry" />
        </mxCell>
        <mxCell id="5" value="Kiểm tra và lọc dữ liệu" style="rounded=1;arcSize=40;strokeWidth=2" parent="1" vertex="1">
          <mxGeometry x="250" y="140" width="197" height="49" as="geometry" />
        </mxCell>
        <mxCell id="6" value="Gộp dữ liệu" style="rounded=1;arcSize=40;strokeWidth=2" parent="1" vertex="1">
          <mxGeometry x="134" y="290" width="116" height="49" as="geometry" />
        </mxCell>
        <mxCell id="7" value="Kết thúc" style="rounded=1;arcSize=40;strokeWidth=2" parent="1" vertex="1">
          <mxGeometry x="125" y="526" width="92" height="49" as="geometry" />
        </mxCell>
      </root>
    </mxGraphModel>
  </diagram>
</mxfile>
